<svg width="32" height="32" viewBox="0 0 32 32" fill="none" xmlns="http://www.w3.org/2000/svg">
<mask id="path-1-inside-1_5154_157" fill="white">
<path d="M32 24C32 21.8989 31.5861 19.8183 30.7821 17.8771C29.978 15.9359 28.7994 14.172 27.3137 12.6863C25.828 11.2006 24.0641 10.022 22.1229 9.21793C20.1817 8.41385 18.1011 8 16 8C13.8988 8 11.8183 8.41385 9.87706 9.21793C7.93585 10.022 6.17203 11.2006 4.68629 12.6863C3.20055 14.172 2.022 15.9359 1.21793 17.8771C0.413852 19.8183 -1.83688e-07 21.8989 0 24L16 24H32Z"/>
</mask>
<path d="M32 24C32 21.8989 31.5861 19.8183 30.7821 17.8771C29.978 15.9359 28.7994 14.172 27.3137 12.6863C25.828 11.2006 24.0641 10.022 22.1229 9.21793C20.1817 8.41385 18.1011 8 16 8C13.8988 8 11.8183 8.41385 9.87706 9.21793C7.93585 10.022 6.17203 11.2006 4.68629 12.6863C3.20055 14.172 2.022 15.9359 1.21793 17.8771C0.413852 19.8183 -1.83688e-07 21.8989 0 24L16 24H32Z" fill="white" stroke="#666666" stroke-width="2" mask="url(#path-1-inside-1_5154_157)"/>
<path d="M18 23C18 22.7374 17.9483 22.4773 17.8478 22.2346C17.7472 21.992 17.5999 21.7715 17.4142 21.5858C17.2285 21.4001 17.008 21.2528 16.7654 21.1522C16.5227 21.0517 16.2626 21 16 21C15.7374 21 15.4773 21.0517 15.2346 21.1522C14.992 21.2528 14.7715 21.4001 14.5858 21.5858C14.4001 21.7715 14.2528 21.992 14.1522 22.2346C14.0517 22.4773 14 22.7374 14 23L16 23H18Z" fill="#2383F2"/>
<path d="M14.4837 22.9593L10.7847 16.6186L16.0584 21.7262L14.4837 22.9593Z" fill="#2383F2"/>
<path d="M16 12C13.3053 12 10.6772 12.8374 8.4792 14.3963L9.91195 16.4164C11.6912 15.1544 13.8187 14.4766 16 14.4766V12Z" fill="#E68137"/>
<path d="M23.5278 14.4013C21.3308 12.8409 18.7032 12.0018 16.0085 12L16.0069 14.4766C18.1883 14.478 20.3153 15.1573 22.0937 16.4204L23.5278 14.4013Z" fill="#DEE13A"/>
<path d="M28.2688 20.7015C27.3777 18.1583 25.7185 15.9549 23.5204 14.3961L22.0877 16.4162C23.867 17.6781 25.2102 19.4617 25.9315 21.5204L28.2688 20.7015Z" fill="#1DCA43"/>
<path d="M8.47118 14.402C6.27438 15.9626 4.61684 18.1674 3.72783 20.7112L6.06575 21.5282C6.7854 19.469 8.12717 17.6843 9.90547 16.421L8.47118 14.402Z" fill="#DC3333"/>
</svg>
