<svg width="271" height="64" viewBox="0 0 271 64" fill="none" xmlns="http://www.w3.org/2000/svg">
<path d="M94.2892 4.1628H102.807L89.4643 43.353H81.7207L68.4971 4.1628H77.2533L85.6521 33.8974L94.2892 4.1628Z" fill="#E02729"/>
<path d="M133.662 4.1628H141.346V43.353H133.126L117.163 15.4025L117.043 43.353H109.359V4.1628H117.996L133.543 31.4591L133.662 4.1628Z" fill="#E02729"/>
<path d="M161.003 26.88V43.353H152.783V4.1628H180.779V11.0612H160.944V19.9221H178.218V26.9395H161.003V26.88Z" fill="#E02729"/>
<path d="M195.432 4.1628V43.353H187.212V4.1628H195.432Z" fill="#E02729"/>
<path d="M220.748 11.0612V43.4124H212.528V11.0612H200.615V4.1628H232.542V11.0612H220.748Z" fill="#E02729"/>
<path d="M267.984 4.1628V11.0612H247.195V19.3869H266.375V26.2853H247.255V36.4545H269.056V43.4719H239.154V4.28173H267.984V4.1628Z" fill="#E02729"/>
<path d="M85.6521 56.8525L84.5799 57.9824V60.0043H82.7334V51.976H84.5799V55.7225L88.1539 51.976H90.2387L86.903 55.5441L90.4174 60.0043H88.273L85.6521 56.8525Z" fill="#272626"/>
<path d="M97.4461 58.5176V60.0043H91.2512V51.976H97.327V53.4627H93.0382V55.1873H96.7909V56.6146H93.0382V58.4581H97.4461V58.5176Z" fill="#272626"/>
<path d="M100.544 53.5222H97.9822V52.0354H104.951V53.5222H102.39V60.0043H100.544V53.5222Z" fill="#272626"/>
<path d="M116.626 51.976V60.0043H115.078L111.087 55.1278V60.0043H109.24V51.976H110.789L114.78 56.8525V51.976H116.626Z" fill="#272626"/>
<path d="M120.141 59.6475C119.485 59.2907 118.949 58.8149 118.592 58.1608C118.235 57.5066 117.996 56.8524 117.996 56.0199C117.996 55.2468 118.175 54.5332 118.592 53.879C118.949 53.2248 119.485 52.7491 120.141 52.3923C120.796 52.0354 121.57 51.857 122.404 51.857C123.238 51.857 124.013 52.0354 124.668 52.3923C125.323 52.7491 125.859 53.2248 126.216 53.879C126.574 54.5332 126.812 55.1873 126.812 56.0199C126.812 56.793 126.633 57.5066 126.216 58.1608C125.859 58.8149 125.323 59.2907 124.668 59.6475C124.013 60.0043 123.238 60.1827 122.404 60.1827C121.57 60.1827 120.796 60.0043 120.141 59.6475ZM123.655 58.2797C124.013 58.0418 124.31 57.7445 124.549 57.3877C124.787 56.9714 124.846 56.5551 124.846 56.0793C124.846 55.6036 124.727 55.1278 124.549 54.771C124.31 54.3547 124.013 54.0574 123.655 53.879C123.298 53.6411 122.821 53.5816 122.345 53.5816C121.868 53.5816 121.451 53.7006 121.034 53.879C120.677 54.1169 120.379 54.4142 120.141 54.771C119.902 55.1873 119.843 55.6036 119.843 56.0793C119.843 56.5551 119.962 57.0309 120.141 57.3877C120.379 57.804 120.677 58.1013 121.034 58.2797C121.392 58.5176 121.868 58.5771 122.345 58.5771C122.881 58.5771 123.298 58.4581 123.655 58.2797Z" fill="#272626"/>
<path d="M128.182 51.976H130.029V60.0043H128.182V51.976Z" fill="#272626"/>
<path d="M142.538 51.976V60.0043H140.989L136.998 55.1278V60.0043H135.151V51.976H136.7L140.691 56.8525V51.976H142.538Z" fill="#272626"/>
<path d="M149.864 55.9009H151.592V59.1717C151.175 59.5286 150.639 59.7664 150.103 59.9448C149.507 60.1233 148.971 60.1827 148.375 60.1827C147.541 60.1827 146.767 60.0043 146.112 59.6475C145.456 59.2907 144.92 58.8149 144.563 58.1608C144.206 57.5066 143.967 56.793 143.967 56.0199C143.967 55.2468 144.146 54.5332 144.563 53.879C144.92 53.2248 145.456 52.7491 146.112 52.3923C146.767 52.0354 147.541 51.857 148.375 51.857C149.09 51.857 149.745 51.976 150.281 52.2139C150.877 52.4517 151.353 52.8085 151.711 53.2248L150.52 54.2953C149.924 53.7006 149.269 53.4032 148.435 53.4032C147.899 53.4032 147.482 53.5222 147.065 53.7006C146.648 53.9385 146.35 54.2358 146.112 54.5926C145.873 55.0089 145.754 55.4252 145.754 55.9604C145.754 56.4362 145.873 56.9119 146.112 57.2687C146.35 57.685 146.648 57.9824 147.065 58.1608C147.482 58.3986 147.899 58.4581 148.435 58.4581C148.971 58.4581 149.447 58.3392 149.864 58.1013V55.9009Z" fill="#272626"/>
<path d="M154.213 59.2312C153.557 58.5771 153.26 57.685 153.26 56.4956V52.0354H155.106V56.4362C155.106 57.8634 155.702 58.5771 156.893 58.5771C157.489 58.5771 157.906 58.3986 158.203 58.0418C158.501 57.685 158.68 57.1498 158.68 56.4362V52.0354H160.527V56.4956C160.527 57.685 160.229 58.5771 159.574 59.2312C158.918 59.8854 158.025 60.1827 156.893 60.1827C155.702 60.1827 154.808 59.8259 154.213 59.2312Z" fill="#272626"/>
<path d="M163.981 59.6475C163.326 59.2907 162.79 58.8149 162.433 58.1608C162.075 57.5066 161.837 56.8524 161.837 56.0199C161.837 55.2468 162.016 54.5332 162.433 53.879C162.79 53.2248 163.326 52.7491 163.981 52.3923C164.637 52.0354 165.411 51.857 166.245 51.857C167.079 51.857 167.853 52.0354 168.508 52.3923C169.164 52.7491 169.7 53.2248 170.057 53.879C170.414 54.5332 170.653 55.1873 170.653 56.0199C170.653 56.793 170.474 57.5066 170.057 58.1608C169.7 58.8149 169.164 59.2907 168.508 59.6475C167.853 60.0043 167.079 60.1827 166.245 60.1827C165.411 60.1827 164.637 60.0043 163.981 59.6475ZM167.496 58.2797C167.853 58.0418 168.151 57.7445 168.389 57.3877C168.627 56.9714 168.687 56.5551 168.687 56.0793C168.687 55.6036 168.568 55.1278 168.389 54.771C168.151 54.3547 167.853 54.0574 167.496 53.879C167.138 53.6411 166.662 53.5816 166.185 53.5816C165.709 53.5816 165.292 53.7006 164.875 53.879C164.517 54.1169 164.22 54.4142 163.981 54.771C163.743 55.1873 163.683 55.6036 163.683 56.0793C163.683 56.5551 163.803 57.0309 163.981 57.3877C164.22 57.804 164.517 58.1013 164.875 58.2797C165.232 58.5176 165.709 58.5771 166.185 58.5771C166.662 58.5771 167.138 58.4581 167.496 58.2797Z" fill="#272626"/>
<path d="M179.409 51.976V60.0043H177.86L173.869 55.1278V60.0043H172.023V51.976H173.571L177.562 56.8525V51.976H179.409Z" fill="#272626"/>
<path d="M192.275 51.976L188.82 60.0043H186.974L183.519 51.976H185.544L187.986 57.685L190.488 51.976H192.275Z" fill="#272626"/>
<path d="M194.479 59.6475C193.824 59.2907 193.288 58.8149 192.93 58.1608C192.573 57.5066 192.335 56.8524 192.335 56.0199C192.335 55.2468 192.513 54.5332 192.93 53.879C193.288 53.2248 193.824 52.7491 194.479 52.3923C195.134 52.0354 195.909 51.857 196.743 51.857C197.577 51.857 198.351 52.0354 199.006 52.3923C199.661 52.7491 200.197 53.2248 200.555 53.879C200.912 54.5332 201.15 55.1873 201.15 56.0199C201.15 56.793 200.972 57.5066 200.555 58.1608C200.197 58.8149 199.661 59.2907 199.006 59.6475C198.351 60.0043 197.577 60.1827 196.743 60.1827C195.909 60.1827 195.134 60.0043 194.479 59.6475ZM197.993 58.2797C198.351 58.0418 198.649 57.7445 198.887 57.3877C199.125 56.9714 199.185 56.5551 199.185 56.0793C199.185 55.6036 199.066 55.1278 198.887 54.771C198.649 54.3547 198.351 54.0574 197.993 53.879C197.636 53.6411 197.16 53.5816 196.683 53.5816C196.206 53.5816 195.79 53.7006 195.373 53.879C195.015 54.1169 194.717 54.4142 194.479 54.771C194.241 55.1873 194.181 55.6036 194.181 56.0793C194.181 56.5551 194.3 57.0309 194.479 57.3877C194.717 57.804 195.015 58.1013 195.373 58.2797C195.73 58.5176 196.206 58.5771 196.683 58.5771C197.219 58.5771 197.636 58.4581 197.993 58.2797Z" fill="#272626"/>
<path d="M209.847 51.976V60.0043H208.298L204.307 55.1278V60.0043H202.461V51.976H204.01L208.001 56.8525V51.976H209.847Z" fill="#272626"/>
<path d="M215.804 59.8854C215.208 59.707 214.732 59.4691 214.374 59.2312L215.029 57.8634C215.387 58.1013 215.804 58.3392 216.28 58.4581C216.757 58.6365 217.233 58.696 217.71 58.696C218.246 58.696 218.603 58.6365 218.901 58.4581C219.14 58.2797 219.259 58.1013 219.259 57.8634C219.259 57.685 219.199 57.5066 219.02 57.3877C218.842 57.2687 218.663 57.1498 218.425 57.0903C218.186 57.0309 217.889 56.9119 217.472 56.8525C216.876 56.7335 216.34 56.5551 215.983 56.4362C215.566 56.3172 215.268 56.0793 214.97 55.7225C214.672 55.4252 214.553 54.9494 214.553 54.4142C214.553 53.9385 214.672 53.5222 214.91 53.1654C215.149 52.8085 215.566 52.5112 216.042 52.2733C216.578 52.0354 217.174 51.9165 217.889 51.9165C218.425 51.9165 218.901 51.976 219.378 52.0949C219.854 52.2139 220.271 52.3923 220.688 52.6301L220.093 54.0574C219.378 53.6411 218.603 53.4032 217.889 53.4032C217.353 53.4032 216.995 53.4627 216.757 53.6411C216.519 53.8195 216.399 54.0574 216.399 54.2953C216.399 54.5926 216.519 54.771 216.816 54.89C217.114 55.0089 217.531 55.1278 218.127 55.3063C218.723 55.4252 219.259 55.6036 219.616 55.7225C220.033 55.8415 220.331 56.0793 220.629 56.4362C220.927 56.7335 221.046 57.1498 221.046 57.685C221.046 58.1608 220.927 58.5771 220.688 58.9339C220.45 59.2907 220.033 59.588 219.557 59.8259C219.02 60.0638 218.425 60.1827 217.71 60.1827C217.055 60.1827 216.399 60.0638 215.804 59.8854Z" fill="#272626"/>
<path d="M222.356 51.976H224.203V60.0043H222.356V51.976Z" fill="#272626"/>
<path d="M232.303 58.5176V60.0043H226.109V51.976H232.184V53.4627H227.955V55.1873H231.708V56.6146H227.955V58.4581H232.303V58.5176Z" fill="#272626"/>
<path d="M234.686 59.2312C234.031 58.5771 233.733 57.685 233.733 56.4956V52.0354H235.58V56.4362C235.58 57.8634 236.175 58.5771 237.367 58.5771C237.962 58.5771 238.379 58.3986 238.677 58.0418C238.975 57.685 239.154 57.1498 239.154 56.4362V52.0354H241V56.4956C241 57.685 240.702 58.5771 240.047 59.2312C239.392 59.8854 238.498 60.1827 237.367 60.1827C236.235 60.1827 235.341 59.8259 234.686 59.2312Z" fill="#272626"/>
<path d="M247.731 53.5222H245.17V52.0354H252.139V53.5222H249.578V60.0043H247.731V53.5222Z" fill="#272626"/>
<path d="M254.7 59.6475C254.045 59.2907 253.509 58.8149 253.152 58.1608C252.794 57.5066 252.556 56.8524 252.556 56.0199C252.556 55.2468 252.735 54.5332 253.152 53.879C253.509 53.2248 254.045 52.7491 254.7 52.3923C255.356 52.0354 256.13 51.857 256.964 51.857C257.798 51.857 258.572 52.0354 259.227 52.3923C259.883 52.7491 260.419 53.2248 260.776 53.879C261.133 54.5332 261.372 55.1873 261.372 56.0199C261.372 56.793 261.193 57.5066 260.776 58.1608C260.419 58.8149 259.883 59.2907 259.227 59.6475C258.572 60.0043 257.798 60.1827 256.964 60.1827C256.13 60.1827 255.356 60.0043 254.7 59.6475ZM258.215 58.2797C258.572 58.0418 258.87 57.7445 259.108 57.3877C259.346 56.9714 259.406 56.5551 259.406 56.0793C259.406 55.6036 259.287 55.1278 259.108 54.771C258.87 54.3547 258.572 54.0574 258.215 53.879C257.857 53.6411 257.381 53.5816 256.904 53.5816C256.428 53.5816 256.011 53.7006 255.594 53.879C255.236 54.1169 254.939 54.4142 254.7 54.771C254.462 55.1873 254.402 55.6036 254.402 56.0793C254.402 56.5551 254.522 57.0309 254.7 57.3877C254.939 57.804 255.236 58.1013 255.594 58.2797C255.951 58.5176 256.428 58.5771 256.904 58.5771C257.381 58.5771 257.857 58.4581 258.215 58.2797Z" fill="#272626"/>
<path d="M264.35 59.6475C263.695 59.2907 263.159 58.8149 262.801 58.1608C262.444 57.5066 262.206 56.793 262.206 56.0199C262.206 55.2468 262.384 54.5332 262.801 53.879C263.159 53.2248 263.695 52.7491 264.35 52.3923C265.005 52.0354 265.78 51.857 266.554 51.857C267.269 51.857 267.864 51.976 268.46 52.2139C268.996 52.4517 269.473 52.8085 269.89 53.2843L268.698 54.3547C268.162 53.7006 267.507 53.4032 266.673 53.4032C266.196 53.4032 265.72 53.5222 265.363 53.7006C264.946 53.9385 264.648 54.2358 264.469 54.5926C264.231 55.0089 264.171 55.4252 264.171 55.9009C264.171 56.3767 264.29 56.8524 264.469 57.2093C264.707 57.6255 265.005 57.9229 265.363 58.1013C265.78 58.3392 266.196 58.3986 266.673 58.3986C267.447 58.3986 268.162 58.1013 268.698 57.4471L269.89 58.5176C269.532 58.9933 269.056 59.3501 268.46 59.588C267.924 59.8259 267.6 60 266.673 60C266 60 265.005 60.0043 264.35 59.6475Z" fill="#272626"/>
<path d="M34.0084 47.7689C33.7702 47.6499 33.5319 47.5905 33.2936 47.4121C33.1149 47.2931 32.8767 47.0552 32.9958 46.8768C33.0554 46.7579 33.2341 46.52 33.5319 46.5795C35.7954 46.9363 39.9055 46.8768 42.0498 41.8814C42.0498 41.822 42.1094 41.822 42.1094 41.7625C43.122 39.3243 43.122 36.7076 42.2881 34.3883C41.5137 32.1285 40.0246 30.166 38.1185 28.7387C37.9993 28.6793 37.8802 28.5603 37.7015 28.5009C37.2846 28.2035 36.808 27.9062 36.3315 27.7278C34.1276 26.7763 31.7449 26.36 29.3623 26.5979C29.3027 26.5979 29.2431 26.5979 29.124 26.5979C27.6944 26.7763 26.3244 27.1331 25.014 27.6088C23.5844 28.263 22.9887 28.2035 22.5718 27.9656C22.5718 27.9062 22.5122 27.9062 22.5122 27.8467C22.5122 27.7872 22.4526 27.7872 22.4526 27.7278C22.4526 27.6683 22.4526 27.6088 22.3931 27.6088C22.3931 27.5494 22.3931 27.4899 22.3931 27.4304C22.3931 27.371 22.3931 27.3115 22.3931 27.252C22.3931 27.0736 22.3931 26.8952 22.3931 26.6573C22.3931 26.5979 22.3931 26.5384 22.3931 26.4195C22.3931 26.4195 22.3931 26.4195 22.3931 26.36C22.3931 26.1816 22.3931 26.0032 22.4526 25.7653C22.4526 25.5869 22.4526 25.4085 22.5122 25.1706C22.5122 24.9922 22.5718 24.8138 22.5718 24.5759C22.6313 24.2191 22.6313 23.8623 22.6909 23.5055C22.7505 23.0892 22.81 22.7324 22.8696 22.3161C22.9292 22.1377 22.9292 21.9593 22.9887 21.7214C23.0483 21.3646 23.1079 21.0078 23.1674 20.651C23.1674 20.532 23.227 20.4131 23.227 20.3536C23.227 20.2347 23.2866 20.1157 23.2866 20.0563C23.3461 19.6994 23.4653 19.2832 23.5248 18.9263C23.5844 18.5695 23.7035 18.1532 23.8226 17.7964C23.8822 17.618 23.9418 17.4396 23.9418 17.2017C24.0013 17.0233 24.0609 16.8449 24.0609 16.6665C24.2396 16.1313 24.3587 15.5366 24.5374 15.0014C24.7161 14.4662 24.8948 13.9309 25.014 13.3957C25.1331 13.0984 25.1927 12.7416 25.3118 12.4442C25.4309 12.0874 25.55 11.6711 25.7287 11.3143C25.8479 11.0169 25.967 10.7196 26.0266 10.4223C26.0266 10.3628 26.0266 10.3628 26.0861 10.3033C26.2053 9.9465 26.3244 9.64916 26.4435 9.35182C26.8605 8.2219 27.2775 7.21092 27.6944 6.25941C27.754 6.14048 27.8136 5.96207 27.8731 5.84313C27.9923 5.60526 28.1114 5.30791 28.2305 5.07003C28.2901 4.95109 28.3496 4.83216 28.4092 4.71322C28.5283 4.47535 28.5879 4.29694 28.707 4.11853C28.707 4.05906 28.707 4.05906 28.7666 3.99959C28.8857 3.70225 29.0645 3.4049 29.1836 3.10756C29.4814 2.4534 29.7197 1.91817 29.9579 1.50188C30.0771 1.26401 30.1366 1.0856 30.1962 0.966664C30.1962 0.907195 30.2558 0.847728 30.2558 0.847728C30.2558 0.788259 30.3153 0.728792 30.3153 0.728792C30.3153 0.669322 30.3749 0.669315 30.3749 0.609846C30.4345 0.550377 30.4345 0.490915 30.4345 0.431446V0.371973V0.3125C31.0301 0.0746239 31.6258 -0.0443144 32.2215 0.0151548C32.3406 0.0151548 32.5193 0.0151584 32.6384 0.0746275C32.8171 0.0746275 33.0554 0.134095 33.2341 0.193564C33.3532 0.253033 33.5319 0.253031 33.651 0.3125C44.1942 4.3564 55.1544 24.8138 61.9449 39.6216C65.8762 48.3041 68.378 55.0241 68.4971 55.3809C68.4971 55.3809 68.4971 55.3809 68.4376 55.3214C68.4376 55.262 68.378 55.262 68.3184 55.2025C68.3184 55.143 68.2589 55.143 68.2589 55.0836C68.1993 55.0241 68.1993 54.9646 68.1397 54.9052C68.1397 54.8457 68.0802 54.8457 68.0802 54.7862C68.0206 54.7268 68.0206 54.6673 67.961 54.6078C67.961 54.5484 67.9015 54.5484 67.9015 54.4889C67.8419 54.3699 67.7823 54.3105 67.7228 54.1915C67.6632 54.0726 67.6036 54.0131 67.5441 53.8942C67.4845 53.8347 67.4249 53.7158 67.3654 53.6563C67.3654 53.6563 67.3654 53.5968 67.3058 53.5968C67.2462 53.5374 67.1867 53.4184 67.1271 53.359C67.008 53.1806 66.8889 53.0022 66.7697 52.8237C66.6506 52.6453 66.5314 52.4669 66.3528 52.2291C66.1741 51.9912 66.0549 51.8128 65.8762 51.5749C65.8167 51.456 65.6975 51.337 65.638 51.2181C65.5784 51.0991 65.4593 50.9802 65.3997 50.8613C65.2806 50.6829 65.1614 50.5639 65.0423 50.3855C64.9827 50.326 64.9232 50.2071 64.8636 50.1476C64.5658 49.7908 64.2679 49.3745 63.9701 48.9583C63.9105 48.8393 63.851 48.7798 63.7319 48.6609C63.6127 48.4825 63.4936 48.3636 63.3745 48.1852C63.2553 48.0067 63.1362 47.8878 62.9575 47.7094C62.7192 47.4715 62.5405 47.1742 62.3023 46.9363C62.1831 46.8174 62.1236 46.6984 62.0044 46.639C62.0044 46.639 62.0044 46.639 61.9449 46.5795C61.9449 46.5795 61.9449 46.5795 61.9449 46.52C61.5875 46.1037 61.2896 45.7469 60.9322 45.3306C60.8131 45.1522 60.694 45.0333 60.5153 44.8549C60.3962 44.7359 60.277 44.617 60.1579 44.4981C59.9196 44.2602 59.6814 43.9628 59.4431 43.725C59.324 43.606 59.2048 43.4871 59.0857 43.3682C58.9666 43.1898 58.7879 43.0708 58.6687 42.8924L58.6092 42.8329C58.4305 42.6545 58.2518 42.4761 58.0731 42.2977C57.8944 42.0598 57.6561 41.8814 57.4774 41.6435C57.4774 41.6435 57.4774 41.5841 57.4179 41.5841C57.2987 41.4651 57.1796 41.3462 57.0605 41.2273C57.0009 41.1678 56.9413 41.1083 56.8222 40.9894C56.7031 40.8705 56.6435 40.811 56.5244 40.692C56.4052 40.5731 56.2861 40.5136 56.2265 40.3947C56.0478 40.2163 55.9287 40.0974 55.75 39.9189C55.6309 39.8595 55.5713 39.7405 55.4522 39.6811C55.2735 39.5027 55.0948 39.3243 54.9161 39.2053C54.8565 39.1459 54.7374 39.0864 54.6778 38.9674C54.6183 38.908 54.6183 38.908 54.5587 38.8485C54.4991 38.789 54.38 38.7296 54.3204 38.6701C54.2609 38.6106 54.2609 38.6106 54.2013 38.6106C54.1417 38.5512 54.0822 38.4917 53.963 38.4322C53.9035 38.3727 53.8439 38.3133 53.7248 38.2538C53.6652 38.1943 53.6056 38.1349 53.5461 38.0754C53.4865 38.0159 53.3674 37.9565 53.3078 37.897C53.2482 37.8375 53.2482 37.8375 53.1887 37.7781C53.1291 37.7781 53.1291 37.7186 53.0695 37.7186C52.8908 37.5997 52.7717 37.4807 52.593 37.3023C52.4143 37.1834 52.2952 37.0644 52.1165 36.9455C51.9974 36.886 51.8782 36.7671 51.7591 36.7076C51.4017 36.4697 51.0443 36.1724 50.7465 35.9345L50.6869 35.875C50.6273 35.8156 50.5678 35.8156 50.5082 35.7561C50.4486 35.6966 50.3891 35.6966 50.3295 35.6372C50.3295 35.6372 50.2699 35.6372 50.2699 35.5777C50.2104 35.5182 50.1508 35.5182 50.0912 35.4588C50.0317 35.3993 49.9125 35.3398 49.853 35.2804C49.853 35.2804 49.853 35.2804 49.7934 35.2804C49.3169 34.9235 48.7808 34.6857 48.3638 34.6857C47.9469 34.8641 47.649 35.3993 47.4703 36.9455C47.2916 38.1943 46.9342 39.3837 46.5173 40.5136C46.5173 40.5731 46.4577 40.6326 46.4577 40.692C45.4451 43.0113 44.0155 45.3306 41.752 46.639C40.3224 47.8878 36.9272 49.1961 34.0084 47.7689Z" fill="url(#paint0_linear_4374_496)"/>
<path d="M41.2159 34.3288C41.2755 34.5667 41.2755 34.8046 41.2755 35.1019C41.2755 35.2803 41.1563 35.6372 40.9776 35.6372C40.7989 35.6372 40.5607 35.6372 40.4416 35.2803C39.6076 33.1395 37.5228 29.6308 32.1023 30.2849C32.0428 30.2849 32.0427 30.2849 31.9832 30.2849C29.3623 30.5823 27.0988 31.9501 25.4905 33.7936C23.9418 35.5777 22.9292 37.8375 22.6909 40.2163C22.6909 40.3352 22.6909 40.5136 22.6909 40.692C22.6313 41.2273 22.6313 41.7625 22.6909 42.2382C22.9292 44.617 23.8226 46.8768 25.1927 48.8393C25.2522 48.8988 25.2522 48.9582 25.3118 49.0177C26.1457 50.1476 27.1583 51.1586 28.2901 52.1101C29.541 53.0021 29.8388 53.5968 29.7793 54.0131C29.7793 54.0726 29.7197 54.0726 29.7197 54.1321C29.7197 54.1915 29.6601 54.1915 29.6005 54.251C29.541 54.3105 29.541 54.3105 29.4814 54.3699C29.4219 54.4294 29.4218 54.4294 29.3623 54.4889C29.3027 54.5483 29.3027 54.5483 29.2432 54.6078C29.0645 54.7267 28.9453 54.7862 28.7071 54.9052C28.6475 54.9646 28.5879 54.9646 28.5284 55.0241C28.5284 55.0241 28.5284 55.0241 28.4688 55.0241C28.2901 55.0836 28.1114 55.2025 27.9327 55.262C27.754 55.3214 27.5753 55.4404 27.3966 55.4998C27.2179 55.5593 27.0392 55.6783 26.8605 55.7377C26.5031 55.8567 26.2053 56.0351 25.8479 56.154C25.4905 56.3324 25.0735 56.4514 24.7161 56.5703C24.5374 56.6298 24.3587 56.6892 24.1801 56.7487C23.8227 56.8676 23.4653 56.9866 23.1674 57.1055C23.0483 57.165 22.9887 57.165 22.8696 57.2245C22.7505 57.2839 22.6909 57.2839 22.5718 57.3434C22.2144 57.4623 21.857 57.5813 21.44 57.7002C21.0826 57.8191 20.7252 57.9381 20.3083 58.057C20.1296 58.1165 19.9509 58.176 19.7722 58.2354C19.5935 58.2949 19.4148 58.3544 19.2361 58.4138C18.7 58.5328 18.1043 58.7112 17.5682 58.8301C17.0321 58.9491 16.4365 59.068 15.9004 59.1869C15.6025 59.2464 15.2451 59.3059 14.8878 59.3653C14.4708 59.4248 14.1134 59.5438 13.6964 59.6032C13.3986 59.6627 13.0412 59.7222 12.7434 59.7816C12.6838 59.7816 12.6838 59.7816 12.6242 59.7816C12.2668 59.8411 11.9095 59.9006 11.6116 59.96C10.4203 60.1384 9.28855 60.3168 8.27593 60.4358C8.15679 60.4358 7.9781 60.4953 7.85897 60.4953C7.56114 60.5547 7.2633 60.5547 7.02504 60.6142C6.9059 60.6142 6.72721 60.6142 6.60808 60.6737C6.36981 60.6737 6.13155 60.7331 5.95286 60.7331C5.89329 60.7331 5.89328 60.7331 5.83372 60.7331C5.47632 60.7926 5.1785 60.7926 4.88067 60.7926C4.16587 60.8521 3.57021 60.9115 3.09369 60.9115C2.85542 60.9115 2.67672 60.9115 2.49803 60.971C2.43846 60.971 2.37889 60.971 2.31933 60.971C2.25976 60.971 2.2002 60.971 2.2002 60.971C2.14063 60.971 2.14063 60.971 2.08107 60.971C2.0215 60.971 1.96193 60.971 1.90237 60.971H1.8428H1.78324C1.30671 60.5547 0.889747 60.079 0.591917 59.5438C0.532351 59.4248 0.472783 59.3059 0.413217 59.1869C0.353651 59.0085 0.294084 58.7706 0.234518 58.5922C0.174952 58.4733 0.174948 58.2949 0.174948 58.176C-1.61203 47.0552 10.6586 27.3115 20.1891 14.0499C25.7288 6.31888 30.3153 0.788251 30.5536 0.490906C30.5536 0.490906 30.5536 0.490909 30.5536 0.550379C30.5536 0.609848 30.494 0.609849 30.494 0.728788C30.494 0.788257 30.4345 0.788255 30.4345 0.847724C30.4345 0.907193 30.3749 0.966664 30.3749 1.02613C30.3749 1.0856 30.3153 1.0856 30.3153 1.14507C30.3153 1.20454 30.2558 1.26401 30.2558 1.32348C30.2558 1.38295 30.1962 1.38295 30.1962 1.44242C30.1366 1.56135 30.0771 1.62082 30.0175 1.73976C29.9579 1.8587 29.8984 1.91817 29.8388 2.03711C29.7793 2.09658 29.7792 2.21551 29.7197 2.27498V2.33445C29.6601 2.39392 29.6601 2.51286 29.6005 2.57233C29.4814 2.75073 29.4218 2.98861 29.3027 3.16702C29.1836 3.34542 29.124 3.5833 29.0049 3.82118C28.8857 4.05906 28.7666 4.29694 28.6475 4.59428C28.5879 4.71322 28.5284 4.83215 28.4688 4.95109C28.4092 5.07003 28.3497 5.18896 28.2901 5.36737C28.2305 5.54578 28.1114 5.72419 28.0518 5.9026C27.9923 6.02154 27.9923 6.08101 27.9327 6.19995C27.754 6.61623 27.5753 7.09198 27.3966 7.56774C27.337 7.68668 27.337 7.80561 27.2775 7.86508C27.2179 8.04349 27.1583 8.22189 27.0392 8.4003C26.9796 8.57871 26.8605 8.81659 26.801 8.99499C26.6818 9.29234 26.5627 9.64916 26.4436 9.9465C26.384 10.0654 26.3244 10.1844 26.3244 10.3628V10.4222C26.3244 10.4222 26.3244 10.4223 26.3244 10.4817C26.1457 10.9575 25.967 11.4332 25.7883 11.9684C25.7288 12.1469 25.6692 12.3253 25.6096 12.5631C25.5501 12.7415 25.4905 12.8605 25.4309 13.0389C25.3118 13.3957 25.1927 13.6931 25.0735 14.0499C25.014 14.2283 24.9544 14.3472 24.9544 14.5256C24.8948 14.704 24.8353 14.9419 24.7757 15.1203C24.7757 15.1798 24.7757 15.1798 24.7757 15.2393C24.7161 15.4771 24.6566 15.715 24.597 15.9529C24.5374 16.2502 24.4183 16.5476 24.3587 16.7855V16.8449C24.2992 17.0233 24.2992 17.2017 24.2396 17.3207C24.2396 17.4396 24.1801 17.4991 24.1801 17.618C24.1205 17.737 24.1205 17.8559 24.0609 18.0343C24.0013 18.1532 24.0013 18.3316 23.9418 18.4506C23.8822 18.6885 23.8226 18.8669 23.7631 19.1047C23.7631 19.2237 23.7035 19.3426 23.7035 19.4616C23.6439 19.6994 23.5844 19.9373 23.5248 20.1752C23.5248 20.2941 23.4653 20.4131 23.4653 20.4725C23.4653 20.532 23.4652 20.5915 23.4057 20.6509C23.4057 20.7699 23.3461 20.8294 23.3461 20.9483C23.3461 21.0078 23.3461 21.0078 23.3461 21.0672C23.3461 21.1862 23.2866 21.2456 23.2866 21.3646C23.2866 21.4835 23.227 21.543 23.227 21.6619C23.227 21.7214 23.227 21.8403 23.1674 21.8998C23.1674 22.0187 23.1674 22.0782 23.1079 22.1971C23.1079 22.2566 23.1079 22.3161 23.1079 22.3755C23.1079 22.435 23.1079 22.435 23.1079 22.4945C23.0483 22.6729 23.0483 22.9108 22.9887 23.0892C22.9887 23.2676 22.9292 23.446 22.9292 23.6839C22.9292 23.8028 22.8696 23.9812 22.8696 24.1001C22.81 24.5164 22.7505 24.9327 22.7505 25.349V25.4085C22.7505 25.4679 22.7505 25.5274 22.7505 25.6463C22.7505 25.7653 22.7505 25.7653 22.7505 25.8842V25.9437C22.7505 26.0032 22.7505 26.0626 22.7505 26.1221C22.7505 26.241 22.7505 26.3005 22.7505 26.4194C22.7505 26.4194 22.7505 26.4194 22.7505 26.4789C22.6909 27.0736 22.6909 27.6683 22.9292 28.0251C23.2866 28.263 23.9418 28.3225 25.3714 27.6683C26.5031 27.252 27.754 26.8952 28.9453 26.7168C29.0049 26.7168 29.0645 26.7168 29.1836 26.7168C31.6854 26.4194 34.4254 26.5384 36.6889 27.7872C38.1781 28.7982 41.0372 31.058 41.2159 34.3288Z" fill="url(#paint1_linear_4374_496)"/>
<path d="M25.9074 34.8046C26.0861 34.6262 26.3244 34.5072 26.5626 34.3883C26.7413 34.3288 27.0987 34.2099 27.1583 34.3883C27.2179 34.5072 27.337 34.7451 27.0987 34.983C25.6692 36.7671 23.6439 40.3352 26.92 44.6765L26.9796 44.7359C28.5879 46.8768 30.8514 48.1257 33.2936 48.6014C35.6167 49.0772 38.0589 48.7798 40.2628 47.7689C40.382 47.7094 40.5011 47.6499 40.6798 47.531C41.1563 47.2931 41.6328 47.0552 42.0498 46.7579C44.0155 45.3306 45.5046 43.4276 46.5173 41.3462C46.5768 41.2867 46.5768 41.2273 46.5768 41.1678C47.1725 39.8595 47.5299 38.4917 47.7681 37.0644C47.9468 35.5182 48.2446 34.983 48.6616 34.8046C48.7212 34.8046 48.7808 34.8046 48.7808 34.8046C48.8403 34.8046 48.8999 34.8046 48.8999 34.8046C48.9595 34.8046 49.019 34.8046 49.019 34.8641C49.0786 34.8641 49.1381 34.9235 49.1381 34.9235C49.1977 34.9235 49.2573 34.983 49.3168 34.983C49.4955 35.0425 49.6742 35.1614 49.8529 35.2803C49.9125 35.3398 49.9721 35.3398 50.0316 35.3993C50.2103 35.5182 50.3295 35.5777 50.5082 35.6966C50.6869 35.8156 50.806 35.9345 50.9847 35.994C51.1634 36.1129 51.2825 36.2319 51.4612 36.3508C51.759 36.5887 52.0569 36.7671 52.3547 37.005C52.6525 37.2428 53.0099 37.4807 53.3078 37.778C53.4865 37.897 53.6056 38.0159 53.7843 38.1349C54.0821 38.3727 54.3204 38.6106 54.6182 38.8485C54.6778 38.908 54.7969 38.9674 54.8565 39.0864C54.9161 39.1458 55.0352 39.2053 55.0947 39.3242C55.3926 39.5621 55.6904 39.8595 55.9287 40.0973C56.2265 40.3352 56.5243 40.6326 56.7626 40.8705C56.8817 40.9894 57.0604 41.1678 57.1796 41.2867C57.2987 41.4057 57.4774 41.5246 57.5965 41.703C58.0135 42.1193 58.4304 42.5356 58.7878 42.9519C59.2048 43.3682 59.5622 43.7844 59.9196 44.2007C60.1579 44.4386 60.3961 44.6765 60.5748 44.9738C60.8131 45.2712 61.1109 45.5685 61.3492 45.8659C61.5874 46.1037 61.7661 46.3416 61.9448 46.5795L62.0044 46.639C62.2427 46.9363 62.4809 47.1742 62.6596 47.4121C63.434 48.3636 64.0892 49.1961 64.7444 50.0287C64.8636 50.1476 64.9231 50.2666 64.9827 50.3855C65.1614 50.6234 65.3401 50.8613 65.4592 51.0397C65.5188 51.1586 65.6379 51.2775 65.6975 51.337C65.8166 51.5154 65.9358 51.6938 66.1145 51.8722C66.1145 51.9317 66.174 51.9317 66.174 51.9317C66.3527 52.229 66.5314 52.4669 66.7101 52.7048C67.1271 53.2995 67.4249 53.7752 67.7227 54.1915C67.8419 54.3699 67.961 54.5483 68.0801 54.6673C68.1397 54.7268 68.1397 54.7862 68.1397 54.7862C68.1993 54.8457 68.1993 54.8457 68.1993 54.9052C68.1993 54.9646 68.2588 54.9646 68.2588 55.0241C68.3184 55.0836 68.3184 55.143 68.378 55.2025C68.378 55.2025 68.378 55.262 68.4375 55.262V55.3214C68.3184 55.9161 68.1397 56.5108 67.7823 57.0461C67.7227 57.165 67.6036 57.2839 67.544 57.4029C67.4249 57.5813 67.2462 57.7002 67.1271 57.8786C67.0079 57.9976 66.9484 58.057 66.8292 58.176C58.0135 65.2528 34.7827 64.5392 18.5808 62.9335C9.10981 62.0415 1.96189 60.7926 1.60449 60.7331C1.60449 60.7331 1.60449 60.7331 1.66405 60.7331C1.72362 60.7331 1.78319 60.7331 1.84275 60.7331C1.90232 60.7331 1.96189 60.7331 2.02145 60.7331C2.08102 60.7331 2.14059 60.7331 2.20015 60.7331C2.25972 60.7331 2.31928 60.7331 2.31928 60.7331C2.37885 60.7331 2.43842 60.7331 2.49798 60.7331C2.55755 60.7331 2.55755 60.7331 2.61711 60.7331C2.73624 60.7331 2.85538 60.7331 2.97451 60.7331C3.09364 60.7331 3.21277 60.7331 3.3319 60.7331C3.3319 60.7331 3.33191 60.7331 3.39147 60.7331C3.5106 60.7331 3.57017 60.7331 3.6893 60.7331H3.74886C3.80843 60.7331 3.92756 60.7331 4.04669 60.7331C4.28496 60.7331 4.46366 60.6737 4.70192 60.6737C4.94019 60.6737 5.17845 60.6142 5.41671 60.6142C5.65498 60.6142 5.95281 60.5547 6.25064 60.5547C6.36977 60.5547 6.54847 60.5547 6.6676 60.4953C6.78673 60.4953 6.96543 60.4358 7.08456 60.4358C7.26326 60.4358 7.50152 60.3763 7.68022 60.3763C7.79935 60.3763 7.91849 60.3763 8.03762 60.3169C8.51415 60.2574 8.99068 60.1979 9.52677 60.1384C9.6459 60.1384 9.76503 60.1384 9.88416 60.079C9.88416 60.079 9.88416 60.079 9.94373 60.079C10.1224 60.079 10.3011 60.0195 10.5394 60.0195C10.7181 60.0195 10.9564 59.96 11.135 59.9006C11.4924 59.8411 11.7903 59.7816 12.1477 59.7222C12.2668 59.7222 12.4455 59.6627 12.5646 59.6627H12.6242H12.6838C13.1603 59.6032 13.6964 59.4843 14.2325 59.3653C14.4112 59.3059 14.6494 59.3059 14.8281 59.2464C15.0068 59.1869 15.126 59.1869 15.3047 59.1275C15.6621 59.068 16.0195 59.0085 16.3769 58.8896C16.5556 58.8301 16.6747 58.8301 16.8534 58.7707C17.0321 58.7112 17.2703 58.6517 17.449 58.6517C17.5086 58.6517 17.5086 58.6517 17.5682 58.6517C17.8064 58.5922 18.0447 58.5328 18.283 58.4733C18.5808 58.4138 18.8786 58.3544 19.1169 58.2354H19.1765C19.3552 58.176 19.5339 58.1165 19.653 58.1165C19.7721 58.1165 19.8317 58.057 19.9508 58.057C20.07 57.9976 20.1891 57.9976 20.3678 57.9381C20.4869 57.8786 20.6656 57.8786 20.7847 57.8192C21.023 57.7597 21.2017 57.7002 21.3804 57.6407C21.4995 57.5813 21.6187 57.5813 21.7378 57.5218C21.9761 57.4623 22.2143 57.4029 22.4526 57.2839C22.5717 57.2245 22.6313 57.2245 22.7504 57.165C22.81 57.165 22.8696 57.1055 22.9291 57.1055C23.0482 57.046 23.1078 57.046 23.2269 56.9866C23.2865 56.9866 23.2865 56.9866 23.3461 56.9271C23.4652 56.8676 23.5248 56.8676 23.6439 56.8082C23.763 56.7487 23.8226 56.7487 23.9417 56.6892C24.0013 56.6892 24.1204 56.6298 24.18 56.6298C24.2991 56.5703 24.3587 56.5703 24.4778 56.5108C24.5374 56.5108 24.597 56.4514 24.6565 56.4514C24.7161 56.4514 24.7161 56.3919 24.7757 56.3919C24.9544 56.3324 25.1926 56.2135 25.3713 56.154C25.55 56.0945 25.7287 56.0351 25.9074 55.9161C26.0265 55.8567 26.1457 55.7972 26.3244 55.7377C26.7413 55.5593 27.0987 55.3809 27.5157 55.2025C27.5157 55.2025 27.5753 55.2025 27.5753 55.143C27.6348 55.0836 27.6944 55.0836 27.754 55.0241C27.8135 54.9646 27.8731 54.9646 27.9327 54.9052C27.9327 54.9052 27.9922 54.9052 27.9922 54.8457C28.0518 54.7862 28.1114 54.7862 28.1709 54.7268C28.2305 54.6673 28.3496 54.6673 28.4092 54.6078C28.4092 54.6078 28.4092 54.6078 28.4687 54.6078C29.0048 54.3699 29.4814 54.0726 29.7196 53.6563C29.7792 53.24 29.4814 52.6453 28.2305 51.7533C27.2774 50.9802 26.3839 50.0882 25.6096 49.1367C25.55 49.0772 25.4904 49.0177 25.4904 48.9582C23.9417 46.9363 22.6909 44.5575 22.6909 41.9409C22.6909 40.2163 23.2269 36.6481 25.9074 34.8046Z" fill="url(#paint2_linear_4374_496)"/>
<defs>
<linearGradient id="paint0_linear_4374_496" x1="25.0029" y1="8.35197" x2="56.6599" y2="53.6175" gradientUnits="userSpaceOnUse">
<stop stop-color="#B92029"/>
<stop offset="0.1008" stop-color="#BD2029"/>
<stop offset="0.2115" stop-color="#CA222B"/>
<stop offset="0.3265" stop-color="#E2252E"/>
<stop offset="0.3577" stop-color="#EE262F"/>
<stop offset="0.6331" stop-color="#F15E46"/>
<stop offset="0.8723" stop-color="#F47B5B"/>
<stop offset="1" stop-color="#F58563"/>
</linearGradient>
<linearGradient id="paint1_linear_4374_496" x1="11.5912" y1="61.8156" x2="34.8885" y2="11.7456" gradientUnits="userSpaceOnUse">
<stop stop-color="#B92029"/>
<stop offset="0.1008" stop-color="#BD2029"/>
<stop offset="0.2115" stop-color="#CA222B"/>
<stop offset="0.3265" stop-color="#E2252E"/>
<stop offset="0.3577" stop-color="#EE262F"/>
<stop offset="0.6331" stop-color="#F15E46"/>
<stop offset="0.8723" stop-color="#F47B5B"/>
<stop offset="1" stop-color="#F58563"/>
</linearGradient>
<linearGradient id="paint2_linear_4374_496" x1="64.6375" y1="46.7141" x2="9.55299" y2="51.5536" gradientUnits="userSpaceOnUse">
<stop stop-color="#B92029"/>
<stop offset="0.1008" stop-color="#BD2029"/>
<stop offset="0.2115" stop-color="#CA222B"/>
<stop offset="0.3265" stop-color="#E2252E"/>
<stop offset="0.3577" stop-color="#EE262F"/>
<stop offset="0.6331" stop-color="#F15E46"/>
<stop offset="0.8723" stop-color="#F47B5B"/>
<stop offset="1" stop-color="#F58563"/>
</linearGradient>
</defs>
</svg>
