<svg width="32" height="32" viewBox="0 0 32 32" fill="none" xmlns="http://www.w3.org/2000/svg">
<mask id="path-1-inside-1_5082_658" fill="white">
<path fill-rule="evenodd" clip-rule="evenodd" d="M16.6551 3C15.9111 3 15.262 3.40627 14.9175 4.00907C10.6777 4.20965 7.30188 7.71059 7.30188 12V20.341C7.30188 20.5109 7.25857 20.678 7.17603 20.8266L5.12728 24.5144C4.75699 25.1809 5.23895 26 6.00144 26H13.3019C13.3019 27.6569 14.645 29 16.3019 29C17.9587 29 19.3019 27.6569 19.3019 26H26.6024C27.3649 26 27.8469 25.1809 27.4766 24.5144L25.4277 20.8264C25.3452 20.6779 25.3019 20.5107 25.3019 20.3408V12C25.3019 7.96497 22.3146 4.62766 18.4309 4.07906C18.0978 3.43793 17.4276 3 16.6551 3Z"/>
</mask>
<path d="M14.9175 4.00907L15.012 6.00684L16.109 5.95494L16.6539 5.00144L14.9175 4.00907ZM7.17603 20.8266L5.42772 19.8553L5.42772 19.8553L7.17603 20.8266ZM5.12728 24.5144L3.37897 23.5431H3.37897L5.12728 24.5144ZM13.3019 26H15.3019V24H13.3019V26ZM19.3019 26V24H17.3019V26H19.3019ZM27.4766 24.5144L29.2249 23.5431L29.2249 23.5431L27.4766 24.5144ZM25.4277 20.8264L27.176 19.8551L27.176 19.8551L25.4277 20.8264ZM18.4309 4.07906L16.6563 5.00129L17.1312 5.91532L18.1512 6.05939L18.4309 4.07906ZM16.6539 5.00144C16.6538 5.00155 16.6542 5.00095 16.6551 5.00007C16.6554 4.99967 16.6558 4.99934 16.6561 4.99909C16.6565 4.99884 16.6566 4.99875 16.6566 4.99877C16.6564 4.99886 16.6555 4.99937 16.6539 4.99981C16.652 5.00034 16.6519 5 16.6551 5V1C15.1645 1 13.8671 1.81631 13.181 3.01671L16.6539 5.00144ZM9.30188 12C9.30188 8.78351 11.8338 6.1572 15.012 6.00684L14.823 2.01131C9.52166 2.2621 5.30188 6.63768 5.30188 12H9.30188ZM9.30188 20.341V12H5.30188V20.341H9.30188ZM8.92435 21.7979C9.17195 21.3522 9.30188 20.8508 9.30188 20.341H5.30188C5.30188 20.171 5.34519 20.0039 5.42772 19.8553L8.92435 21.7979ZM6.8756 25.4856L8.92435 21.7979L5.42772 19.8553L3.37897 23.5431L6.8756 25.4856ZM6.00144 24C6.76392 24 7.24589 24.8191 6.8756 25.4856L3.37897 23.5431C2.26808 25.5427 3.71399 28 6.00144 28V24ZM13.3019 24H6.00144V28H13.3019V24ZM16.3019 27C15.7496 27 15.3019 26.5523 15.3019 26H11.3019C11.3019 28.7614 13.5405 31 16.3019 31V27ZM17.3019 26C17.3019 26.5523 16.8542 27 16.3019 27V31C19.0633 31 21.3019 28.7614 21.3019 26H17.3019ZM26.6024 24H19.3019V28H26.6024V24ZM25.7283 25.4856C25.358 24.8191 25.8399 24 26.6024 24V28C28.8899 28 30.3358 25.5427 29.2249 23.5431L25.7283 25.4856ZM23.6794 21.7977L25.7283 25.4856L29.2249 23.5431L27.176 19.8551L23.6794 21.7977ZM23.3019 20.3408C23.3019 20.8506 23.4318 21.352 23.6794 21.7977L27.176 19.8551C27.2586 20.0037 27.3019 20.1709 27.3019 20.3408H23.3019ZM23.3019 12V20.3408H27.3019V12H23.3019ZM18.1512 6.05939C21.062 6.47058 23.3019 8.97542 23.3019 12H27.3019C27.3019 6.95451 23.5671 2.78474 18.7107 2.09872L18.1512 6.05939ZM16.6551 5C16.6584 5 16.6582 5.00035 16.6562 4.99976C16.6554 4.99955 16.6548 4.99931 16.6543 4.99909C16.6538 4.99888 16.6536 4.99875 16.6537 4.99877C16.6538 4.99887 16.6546 4.9994 16.6554 5.00033C16.6563 5.00125 16.6565 5.00172 16.6563 5.00129L20.2056 3.15682C19.5419 1.87958 18.2029 1 16.6551 1V5Z" fill="#666666" mask="url(#path-1-inside-1_5082_658)"/>
</svg>
